PathFileType	4	(X/Y/Z)	C:/Users/beibeiliu/ov580/test_trc/User3\sequence.12_training_dense_right.trc
DataRate	CameraRate	NumFrames	NumMarkers	Units	OrigDataRate	OrigDataStartFrame	OrigNumFrames
120	120	22	19	mm	120	157	250
Frame#	Time	ThumbCMC			ThumbMCP			ThumbIP			ThumbTip			IndexMCP			IndexPIP			IndexTip			MiddleMCP			MiddlePIP			MiddleTip			RingMCP			RingPIP			RingTip			PinkyMCP			PinkyPIP			PinkyTip			BackHand1			BackHand2			BackHand3	
		X0	Y0	Z0	X1	Y1	Z1	X2	Y2	Z2	X3	Y3	Z3	X4	Y4	Z4	X5	Y5	Z5	X6	Y6	Z6	X7	Y7	Z7	X8	Y8	Z8	X9	Y9	Z9	X10	Y10	Z10	X11	Y11	Z11	X12	Y12	Z12	X13	Y13	Z13	X14	Y14	Z14	X15	Y15	Z15	X16	Y16	Z16	X17	Y17	Z17	X18	Y18	Z18	
156	1.3	210.228	-37.1179	6.61773	214.166	-31.9504	-20.0752	208.772	-30.5839	-51.1885	202.212	-28.243	-72.2255	184.205	-57.6197	-67.2361	175.506	-61.8522	-92.5332	168.207	-64.6558	-111.991	164.826	-69.1774	-68.835	161.861	-67.2028	-90.8973	150.678	-73.4739	-123.261	152.517	-71.967	-59.2504	146.01	-72.1927	-81.388	139.794	-73.6261	-105.185	138.048	-74.0329	-35.6492	135.998	-72.548	-56.56	130.36	-77.9309	-80.7049	167.414	-81.602	-10.8208	176.283	-83.1587	20.0074	199.593	-69.5319	-3.34469	
157	1.30833	212.386	-32.2578	9.99505	215.864	-30.7227	-23.7206	210.634	-28.6866	-53.7265	200.759	-26.6338	-73.1538	186.912	-53.6165	-62.8793	182.712	-56.0172	-90.9398	172.845	-60.5261	-115.396	170.576	-65.4237	-71.2372	162.267	-66.0626	-94.7517	155.921	-69.8319	-123.72	152.486	-70.5639	-56.1647	150.57	-70.1347	-78.0115	142.509	-73.4074	-103.315	141.049	-72.8604	-36.623	139.465	-70.8525	-56.8036	134.314	-74.8064	-77.4984	171.719	-80.1686	-5.6743	180.48	-82.7913	20.6624	203.726	-63.1076	-2.74537	
158	1.31667	209.153	-27.6944	6.37802	216.299	-20.8404	-19.302	208.371	-19.9395	-50.6394	201.276	-17.0133	-73.9952	187.241	-48.7877	-65.1905	184.787	-48.0556	-88.6112	174.347	-54.7887	-113.168	171.278	-61.1605	-67.633	165.939	-60.3945	-92.4691	158.776	-63.2799	-122.378	156.881	-65.7445	-57.1868	153.24	-64.4686	-78.3326	149.732	-66.1892	-107.806	142.952	-70.9124	-37.7583	142.204	-67.6918	-60.1095	135.131	-72.9636	-79.2363	172.153	-76.2985	-11.4501	180.473	-76.3923	17.6637	204.143	-56.4689	-3.44376	
159	1.325	206.766	-18.1767	11.3747	207.72	-13.3284	-18.0059	204.34	-8.54027	-45.565	195.541	-6.50902	-72.0795	187.264	-37.8718	-66.0707	182.19	-39.0262	-86.8594	176.741	-42.6713	-114.421	173.097	-52.517	-66.591	164.895	-53.1101	-97.0483	160.992	-53.1815	-121.462	159.253	-57.7983	-56.8698	154.549	-59.1273	-81.6567	149.305	-61.1726	-105.047	146.461	-64.174	-36.7258	141.809	-65.6144	-60.4702	141.241	-64.8183	-81.8634	172.906	-71.317	-7.65612	178	-74.3626	17.3399	200.012	-52.7662	-4.08659	
160	1.33333	197.466	-12.4443	9.81654	204.98	1.26069	-16.0934	201.192	6.11692	-46.0742	191.872	7.67824	-69.4658	185.693	-26.4999	-64.6514	179.826	-27.9821	-87.2746	174.338	-32.6185	-115.84	172.754	-41.7006	-71.3218	167.521	-40.1632	-97.0042	161.591	-42.1705	-121.874	159.163	-51.608	-61.6719	155.826	-50.2077	-82.2858	150.473	-52.3974	-108.771	146.046	-61.4162	-40.8568	144.429	-58.5142	-58.6902	141.149	-61.8243	-80.5499	176.089	-63.7767	-8.60371	179.699	-69.2437	14.9692	201.19	-39.9516	-1.70329	
161	1.34167	194.027	-4.19617	15.2506	197.758	8.11278	-14.5781	193.273	12.402	-46.1008	186.443	17.1305	-62.4597	183.511	-18.7908	-61.8992	177.226	-20.7732	-86.7174	172.763	-22.4264	-114.9	172.454	-33.5069	-70.7006	164.347	-35.0357	-91.9034	164.253	-30.9034	-122.572	157.84	-46.2405	-59.7137	154.803	-45.1681	-83.1152	151.318	-45.3125	-105.355	146.664	-55.9532	-42.029	142.521	-57.476	-61.0286	141.9	-58.8237	-82.9818	176.815	-56.224	-12.9509	183.104	-63.4532	18.4919	200.248	-33.876	0.0143982	
162	1.35	189.182	-1.04396	15.1904	192.791	14.2309	-11.1224	187.446	18.7996	-39.3899	178.755	22.4455	-59.2452	179.419	-12.9353	-58.6871	175.252	-14.587	-84.4936	174.136	-12.376	-108.794	170.146	-29.5074	-69.7221	166.768	-26.3694	-92.9747	163.845	-24.4844	-126.063	158.975	-39.9714	-60.8762	156.875	-38.8643	-82.1461	151.994	-37.6469	-110.423	145.966	-57.0106	-40.6095	145.414	-52.6792	-62.6423	144.43	-52.1511	-86.0995	173.322	-55.4158	-14.5477	181.64	-62.375	15.3567	195.944	-26.0626	-2.46838	
163	1.35833	183.615	4.21193	19.8494	184.582	16.0646	-10.5977	177.072	20.4	-39.2136	168.169	23.9536	-58.8039	176.751	-6.03995	-63.311	172.515	-8.29582	-84.9419	168.82	-11.2745	-112.499	170.125	-24.1062	-67.4375	163.368	-25.6915	-92.4678	162.068	-19.5121	-121.122	157.94	-40.4509	-60.8613	154.442	-40.2232	-83.4686	151.258	-38.8486	-107.141	147.903	-54.1455	-42.8912	146.813	-50.8036	-63.1388	147.967	-51.3163	-87.6146	176.555	-50.6945	-12.9114	183.253	-58.4581	12.7753	192.383	-23.241	2.84474	
164	1.36667	175.831	1.79765	19.1981	176.752	17.1179	-8.78178	169.216	19.0337	-40.4142	156.87	16.9411	-55.9327	171.634	-10.981	-59.0634	169.227	-8.50373	-87.6598	165.49	-10.7673	-108.846	166.405	-25.8976	-68.6605	161.72	-25.09	-93.154	159.014	-25.4681	-124.362	156.674	-42.5738	-60.4333	153.074	-42.784	-82.8431	151.073	-42.2639	-109.676	148.133	-58.4376	-41.1007	144.702	-59.6872	-61.9222	147.236	-56.5198	-87.5313	175.528	-53.5972	-12.1811	182.522	-59.1772	18.285	188.597	-22.5681	3.91486	
165	1.375	169.858	-1.17372	20.0137	167.103	13.5458	-10.5896	158.318	13.2078	-43.906	143.49	1.65471	-58.2575	165.482	-13.7587	-58.6906	162.614	-17.2073	-87.6453	158.921	-19.212	-109.066	160.827	-38.3945	-64.2627	155.569	-38.0622	-93.9653	153.554	-39.4063	-122.655	153.299	-53.2914	-58.0528	150.735	-49.5058	-78.836	147.083	-55.1534	-107.144	147.803	-62.274	-42.1204	144.887	-64.4353	-58.6625	145.24	-68.6083	-84.0404	176.006	-54.7067	-7.84886	181.544	-60.6742	16.8838	184.654	-24.3591	2.18127	
166	1.38333	165.183	-5.43286	13.4314	159.711	4.88181	-14.0535	149.012	5.57244	-40.6754	135.309	-9.5936	-55.2541	157.772	-28.3435	-58.8302	153.157	-32.0177	-86.3852	149.42	-34.7631	-109.145	156.311	-45.9221	-66.5761	149.876	-47.7143	-91.5385	145.151	-51.5498	-122.987	150.43	-62.6826	-54.0856	144.92	-67.3231	-78.1061	141.173	-69.7223	-102.341	145.681	-72.9223	-32.828	141.443	-79.0173	-55.0376	139.538	-77.8002	-76.5612	172.236	-59.0599	-9.64368	181.343	-62.3842	17.4138	183.25	-28.2926	0.28144	
167	1.39167	163.496	-5.27869	13.738	154.916	0.583415	-14.1497	141.433	-5.85294	-46.0254	126.176	-19.6657	-53.9748	152.289	-33.1146	-60.6489	145.742	-39.5337	-82.164	137.522	-50.9995	-107.64	150.854	-54.1655	-63.1079	141.742	-60.465	-85.0938	134.423	-69.0456	-116.842	146.159	-71.9471	-49.4824	139.804	-75.9339	-74.8144	132.195	-83.9594	-96.4619	143.114	-83.7544	-29.187	137.773	-85.6349	-48.8524	132.792	-91.5978	-71.1538	170.425	-65.3171	-7.18298	184.105	-65.4626	20.6683	181.64	-33.9073	-1.25217	
168	1.4	162.116	-6.29196	14.8744	149.848	-6.02844	-13.9047	135.735	-11.7095	-38.3903	120.755	-26.9451	-50.6254	144.685	-38.8743	-55.4078	134.165	-50.8145	-80.4156	125.764	-58.2099	-100.88	144.077	-60.7627	-57.585	132.794	-67.3627	-80.0372	120.641	-77.5378	-107.044	140.604	-79.8073	-44.7569	131.678	-86.4545	-70.1743	121.578	-90.6153	-92.9152	139.165	-90.7838	-27.3365	131.847	-91.375	-45.8333	127.516	-100.098	-64.8246	170.585	-69.4103	-3.67287	183.554	-65.4228	18.1891	179.19	-36.9219	1.48584	
169	1.40833	161.253	-9.72812	16.3968	146.307	-5.7093	-12.1416	129.858	-13.2329	-34.5881	111.043	-27.099	-50.4006	135.103	-48.1796	-53.5648	124.643	-52.0888	-72.3123	113.705	-60.3545	-92.5136	136.197	-64.1657	-52.9963	121.227	-71.4538	-77.4312	106.686	-80.9959	-101.371	134.221	-80.0237	-38.881	122.94	-88.088	-62.7393	109.793	-94.625	-84.8126	135.202	-92.4305	-20.9249	127.691	-97.0977	-35.2617	117.77	-101.453	-60.4689	167.677	-72.7356	-2.66802	183.8	-63.2611	24.0088	176.427	-37.5491	2.6734	
170	1.41667	159.56	-12.6184	16.6808	142.69	-5.33411	-8.0375	123.188	-14.4362	-32.9978	107.661	-26.6174	-39.7484	129.534	-46.1475	-44.4892	115.352	-53.6724	-62.5649	98.8672	-65.1756	-85.4933	126.879	-68.1137	-45.1547	109.114	-72.2832	-68.9059	91.5738	-83.0117	-90.8427	127.057	-78.2421	-32.2173	114.977	-86.9112	-49.3444	98.3857	-97.1173	-72.2349	130.727	-90.2169	-11.2651	119.496	-96.5229	-31.1981	107.367	-106.228	-50.4714	161.839	-72.6863	2.55937	182.428	-65.6808	24.7522	174.786	-39.7494	5.99269	
171	1.425	159.876	-9.00009	18.2285	142.321	-7.45601	-1.48412	120.497	-16.0373	-24.268	102.558	-23.793	-34.7998	121.644	-45.0534	-40.0185	104.836	-53.2353	-56.1495	87.5142	-61.8672	-73.6821	116.508	-66.3877	-40.4187	98.4441	-73.7249	-57.2216	80.0071	-81.3226	-79.4144	119.968	-79.9954	-22.325	103.011	-84.6167	-43.3673	84.8637	-95.9632	-61.6167	124.589	-89.2247	-5.79082	113.724	-95.2303	-18.591	97.8447	-103.412	-40.2739	159.522	-69.6167	7.16507	178.416	-67.7515	26.7193	174.178	-36.4634	5.38321	
172	1.43333	158.612	-9.78281	21.6102	138.988	-5.20843	1.31832	114.716	-9.37558	-20.9441	96.2395	-19.9796	-30.5285	115.148	-39.7592	-33.6015	93.7015	-46.6086	-50.3201	75.3577	-57.7418	-65.3572	109.06	-59.9368	-34.018	87.7287	-65.493	-50.8794	67.855	-76.1586	-66.2521	111.212	-75.2381	-19.0037	96.1041	-82.4809	-31.8865	74.93	-86.9953	-50.3115	118.955	-88.2938	5.40001	103.714	-94.4662	-12.5108	87.1005	-96.8313	-29.8549	154.132	-68.8289	9.08052	175.894	-65.2614	27.0765	170.391	-39.4566	7.73048	
173	1.44167	158.963	-8.10829	25.0964	137.539	-3.11301	5.49524	112.347	-5.20301	-15.8922	90.7941	-13.3389	-25.1204	106.296	-36.6262	-30.1036	87.3852	-44.3097	-40.9294	66.6206	-55.2818	-52.6403	102.126	-59.1875	-26.6213	81.2824	-61.5209	-41.559	56.3797	-70.5815	-58.0669	106.362	-70.984	-11.9357	87.234	-75.379	-26.5791	63.4661	-83.5448	-41.5878	113.721	-83.5421	10.1104	98.9178	-86.0344	-5.31669	80.9377	-91.9279	-22.268	151.387	-64.8399	13.5375	176.215	-64.9765	28.3645	166.587	-32.8748	6.30958	
174	1.45	159.692	-3.53429	26.3373	134.558	-0.294161	5.47129	111.484	-1.08811	-8.26733	87.5752	-6.61155	-18.4291	101.651	-33.6416	-24.6139	80.795	-38.6965	-35.3175	57.9148	-50.2505	-46.2733	98.4491	-55.6967	-19.7736	76.4048	-58.0055	-31.5207	49.9049	-62.5377	-50.6193	102.118	-67.8847	-6.7944	78.1514	-74.1405	-21.6571	55.9407	-81.2251	-32.0453	109.056	-77.9189	12.8828	92.2962	-82.4552	0.811602	71.0858	-85.3465	-13.8387	149.017	-63.7966	12.6631	173.426	-64.5285	30.7847	164.62	-32.5813	9.68317	
175	1.45833	158.47	-1.84233	26.0266	133.795	3.49901	6.99275	107.925	2.33369	-8.11885	88.1848	-4.98451	-10.4089	99.3867	-30.7702	-17.8216	76.4415	-36.3576	-29.2956	51.9211	-43.2146	-40.475	94.3067	-49.36	-16.2001	67.8268	-54.1102	-29.9401	44.6893	-61.5887	-39.0362	95.9091	-64.7647	-2.57419	74.3306	-68.3711	-14.5678	52.7485	-72.9702	-22.06	103.989	-75.4088	15.0794	86.6446	-76.5336	4.33776	67.6353	-83.81	-5.49895	147.393	-63.8522	17.7126	171.496	-59.0837	31.7981	161.581	-33.0936	8.59722	
176	1.46667	158.92	-0.0350874	28.0325	134.474	6.33471	9.12769	105.777	5.33488	-5.4206	85.4847	-3.31078	-6.56385	94.4646	-28.9406	-12.9962	72.1194	-30.0381	-24.5664	51.0909	-36.2545	-32.8583	87.799	-47.4697	-11.7499	64.3375	-49.0432	-22.2311	38.0909	-55.8974	-32.5261	92.2057	-57.4823	-0.331724	73.9491	-60.9743	-7.88701	45.3559	-68.5055	-16.9374	103.113	-70.0467	20.1997	84.4829	-76.3845	12.3904	63.4624	-79.1155	3.1861	139.994	-59.7987	18.4658	170.626	-58.6646	31.886	158.458	-29.1226	11.9213	
177	1.475	160.431	4.73349	28.9438	134.37	12.7713	11.4066	105.858	5.49533	-0.431043	82.8166	6.85272	-5.50507	92.0423	-20.465	-12.0335	67.4937	-28.1615	-18.0473	47.5382	-32.5777	-26.0919	88.7603	-42.5983	-5.75508	60.271	-41.7989	-17.9699	31.5346	-48.4838	-28.3491	90.9892	-57.3185	7.15976	69.8341	-59.5503	-2.49764	43.51	-61.5434	-10.9372	101.151	-67.4624	26.3607	83.9022	-67.1267	15.2885	58.6754	-67.6559	5.81075	143.665	-55.3843	20.7034	169.738	-57.8734	32.3976	160.252	-25.8115	11.3318	
